PathFileType	4	(X/Y/Z)	C:\Users\Basilio\Documents\Thesis Gigler\squatting_fais\c3dfiles\075\SLS_back_pre2\markers_experimental.trc
DataRate	CameraRate	NumFrames	NumMarkers	Units	OrigDataRate	OrigDataStartFrame	OrigNumFrames
200.000000	200.000000	4	61	mm	200.000000	1162	1329
Frame#	Time	FHD			LBHD			C7			T10			CLAV			LSHO			LUUPA			LMUPA			LDUPA			LLEP			LMEP			LRAD			LUL			LRFIN			RSHO			RUPA1			RMUPA			RDUPA			RLEP			RMEP			RRAD			RUL			RUFIN			LASI			RASI			USACR			LSACR			RSACR			LTHI1			LTHI2			LTHI3			LTHI4			LLFC			LMFC			LTIB1			LTIB2			LTIB3			LTIB4			LLMAL			LMMAL			LHEE			LMT1			LMT2			LMT5			RTHI			RTHI2			RTHI3			RTHI4			RLFC			RMFC			RTIB1			RTIB2			RTIB3			RTIB4			RLMAL			RMMAL			RHEE			RMT1			RMT2			RMT5			RBHD			
		X1	Y1	Z1	X2	Y2	Z2	X3	Y3	Z3	X4	Y4	Z4	X5	Y5	Z5	X6	Y6	Z6	X7	Y7	Z7	X8	Y8	Z8	X9	Y9	Z9	X10	Y10	Z10	X11	Y11	Z11	X12	Y12	Z12	X13	Y13	Z13	X14	Y14	Z14	X15	Y15	Z15	X16	Y16	Z16	X17	Y17	Z17	X18	Y18	Z18	X19	Y19	Z19	X20	Y20	Z20	X21	Y21	Z21	X22	Y22	Z22	X23	Y23	Z23	X24	Y24	Z24	X25	Y25	Z25	X26	Y26	Z26	X27	Y27	Z27	X28	Y28	Z28	X29	Y29	Z29	X30	Y30	Z30	X31	Y31	Z31	X32	Y32	Z32	X33	Y33	Z33	X34	Y34	Z34	X35	Y35	Z35	X36	Y36	Z36	X37	Y37	Z37	X38	Y38	Z38	X39	Y39	Z39	X40	Y40	Z40	X41	Y41	Z41	X42	Y42	Z42	X43	Y43	Z43	X44	Y44	Z44	X45	Y45	Z45	X46	Y46	Z46	X47	Y47	Z47	X48	Y48	Z48	X49	Y49	Z49	X50	Y50	Z50	X51	Y51	Z51	X52	Y52	Z52	X53	Y53	Z53	X54	Y54	Z54	X55	Y55	Z55	X56	Y56	Z56	X57	Y57	Z57	X58	Y58	Z58	X59	Y59	Z59	X60	Y60	Z60	X61	Y61	Z61	

1163	5.81	-233.3664703369141	1720.790283203125	-837.5444946289065	-377.5841674804688	1606.261596679688	-913.6651611328127	-421.6002807617189	1487.889770507813	-849.384704589844	-426.1372070312501	1161.284790039063	-843.8804321289065	-276.6517333984376	1429.560546875	-850.8261718750002	-318.4019470214844	1455.01220703125	-1011.277893066406	-327.7218627929688	1259.67724609375	-1134.591430664063	-284.0080261230469	1239.96875	-1118.32958984375	-306.9347229003907	1195.04541015625	-1154.11181640625	-271.6887207031251	1117.227783203125	-1153.3271484375	-335.8309020996094	1092.13037109375	-1090.47412109375	-149.3016815185547	1105.747436523438	-929.3872070312502	-105.3986358642578	1065.652099609375	-976.051696777344	-80.42849731445314	1111.715576171875	-878.0664672851565	-309.9358215332032	1454.255859375	-687.1876831054689	-305.4044494628907	1254.372192382813	-570.2235717773439	-265.9109497070313	1231.203491210938	-589.3115844726564	-289.7918090820313	1186.806030273438	-555.0816650390626	-263.7740783691407	1119.540649414063	-553.6522216796876	-320.4086303710938	1077.872680664063	-603.6066284179689	-129.3379211425782	1113.41748046875	-792.0952758789065	-98.03578186035159	1066.759033203125	-739.4372558593751	-55.37241363525392	1114.041137695313	-837.0798339843752	-267.4592895507813	996.1469726562502	-981.517028808594	-247.6262817382813	999.6904907226565	-729.3184814453126	-417.2819213867189	1060.782104492188	-847.1813964843752	-424.2987365722657	1029.577758789063	-874.0473632812502	-419.4624633789064	1030.237426757813	-816.9882812500002	-316.1484375000001	753.9793701171876	-1056.855224609375	-283.7053527832032	675.6752319335939	-1061.550903320313	-236.7200469970704	681.3996582031251	-1047.986450195313	-309.3437500000001	622.1235351562501	-1051.682983398438	-316.0654907226563	513.0953979492189	-1046.532958984375	-266.2062988281251	492.987762451172	-926.5817871093752	-266.6368713378907	386.2697143554689	-1021.569946289063	-332.0899658203126	354.5975341796876	-1069.61474609375	-290.8446044921876	343.3601074218751	-1052.277587890625	-299.6629028320313	262.5036621093751	-1026.065795898438	-387.210906982422	130.086898803711	-1044.665771484375	-355.6894836425782	137.7763061523438	-965.1821899414065	-445.542205810547	101.8907928466797	-1003.552978515625	-243.3468627929688	52.33339309692384	-974.0213012695315	-238.4511871337891	54.63206100463869	-1022.612243652344	-278.4626464843751	42.00941848754884	-1075.083251953125	-311.3706054687501	794.285095214844	-666.5313720703126	-274.2492370605469	741.0287475585939	-672.1940307617189	-243.5139923095704	746.8545532226564	-684.4566650390626	-304.0729675292969	660.7037353515626	-684.0888671875001	-325.2868652343751	507.7759399414064	-717.5727539062501	-289.6939697265626	502.7691650390626	-842.5369873046877	-285.2080383300782	360.0493164062501	-787.140319824219	-339.4980773925782	284.0647583007813	-730.5457763671876	-303.9525146484376	277.8163452148438	-762.9436645507814	-317.8704833984376	234.9730529785157	-800.7673339843752	-391.6446228027345	117.029525756836	-767.8278198242189	-363.9202270507813	142.8217010498047	-846.7686767578127	-449.9131469726564	100.7844009399414	-824.0171508789065	-245.723617553711	58.32722854614259	-835.9873046875002	-246.0807189941407	54.8729934692383	-793.6049804687502	-284.1989135742188	34.51486587524415	-741.8226318359376	-345.2061157226563	1640.397827148438	-758.1552734375001	
1164	5.815	-233.7042083740235	1720.864990234375	-837.8140258789065	-377.9979248046876	1606.148803710938	-914.0872192382815	-421.9029235839845	1487.782836914063	-849.8613891601565	-426.3276977539064	1161.2275390625	-844.1153564453127	-276.8406066894532	1429.513916015625	-851.1096191406252	-318.6082153320313	1454.997314453125	-1011.678833007813	-327.8746032714844	1259.565795898438	-1135.197143554688	-283.8518371582032	1239.951171875	-1118.576293945313	-306.7662048339844	1194.987182617188	-1154.46533203125	-271.4981384277344	1117.198852539063	-1153.667846679688	-335.6143798828126	1091.957763671875	-1090.862426757813	-149.0870971679688	1106.322387695313	-929.7627563476565	-105.0297775268555	1066.042358398438	-976.4336547851565	-80.0614471435547	1112.160766601563	-878.488952636719	-310.2203674316407	1454.18310546875	-687.5492553710939	-305.8348083496094	1254.2109375	-570.7357788085939	-266.1971435546876	1231.085571289063	-589.8342285156251	-290.1072998046876	1186.670166015625	-555.6299438476564	-264.0606384277344	1119.42529296875	-554.3014526367189	-320.5511779785157	1077.821655273438	-604.3931884765626	-129.241439819336	1113.773193359375	-792.4700927734377	-97.8988952636719	1067.109985351563	-739.7841186523439	-55.3385353088379	1114.432983398438	-837.2678222656252	-267.6215820312501	996.107116699219	-981.7672119140627	-247.8150329589844	999.7534790039065	-729.4801635742189	-417.3789367675782	1060.776245117188	-847.500671386719	-424.4367065429689	1029.519653320313	-874.2991943359377	-419.6320190429689	1030.18115234375	-817.2901611328127	-316.1331787109376	753.8951416015626	-1057.034545898438	-283.6460876464844	675.6054687500001	-1061.582885742188	-236.6557617187501	681.3889160156251	-1048.172485351563	-309.2731018066407	622.0811767578126	-1051.818481445313	-316.0302734375001	513.0020141601564	-1046.677490234375	-266.1905517578126	492.9397888183595	-926.662292480469	-266.5422058105469	386.2506103515626	-1021.648132324219	-331.3796081542969	354.3148193359376	-1069.421752929688	-290.7812194824219	343.2978210449219	-1052.304565429688	-299.5532836914063	262.4804382324219	-1026.073974609375	-387.1726379394532	130.0355529785157	-1044.629272460938	-355.6574096679688	137.7635498046875	-965.1607666015627	-445.5679321289064	101.8565444946289	-1003.523742675781	-243.3404083251954	52.22837448120119	-974.000915527344	-238.4486389160157	54.64278411865236	-1022.585083007813	-278.4469299316407	42.06650924682618	-1075.082397460938	-311.5086059570313	794.3399047851565	-666.6761474609376	-274.4324951171876	740.8013305664064	-672.5684204101564	-243.6208496093751	746.9378662109376	-684.5953369140626	-304.2339172363282	660.7697143554689	-684.2205810546876	-325.3338623046876	507.7698974609376	-717.6893310546876	-289.5670166015626	502.6330871582032	-842.594421386719	-285.3051452636719	360.0382080078126	-787.268493652344	-339.4881286621094	284.0941772460938	-730.6674804687501	-304.0340881347657	277.8160705566407	-763.0437622070314	-317.8193664550782	234.9495544433594	-800.8594360351565	-391.6111755371095	117.0877761840821	-767.8426513671876	-364.7200622558594	143.0581665039063	-846.9524536132815	-449.897186279297	100.7330398559571	-824.043395996094	-245.7410583496094	58.32435607910158	-836.0422973632815	-246.0792999267579	54.85725784301759	-793.6202392578127	-284.1488037109376	34.51266860961915	-741.8286743164064	-345.4609680175782	1640.37158203125	-758.7561035156251	
1165	5.82	-234.2591400146485	1721.083251953125	-838.2227783203127	-378.2103881835938	1606.159057617188	-914.5142822265627	-422.1238403320314	1487.694091796875	-850.3632812500002	-426.4908752441407	1161.225219726563	-844.3981933593752	-277.0676879882813	1429.413696289063	-851.4796142578127	-318.7007446289063	1454.915161132813	-1011.995849609375	-327.8356628417969	1259.495971679688	-1135.646850585938	-283.8130798339844	1239.874267578125	-1118.9853515625	-306.5615539550782	1194.877319335938	-1154.668579101563	-271.4894409179688	1117.125732421875	-1154.025756835938	-335.4482727050782	1091.888427734375	-1091.15625	-148.8962097167969	1106.285888671875	-930.1494140625002	-104.9048919677735	1066.330444335938	-976.6668701171877	-79.87568664550783	1112.526245117188	-878.9165649414065	-310.4526062011719	1454.242431640625	-687.9139404296876	-306.1808471679688	1254.17919921875	-571.2784423828126	-266.4748229980469	1231.056884765625	-590.3294677734376	-290.3392028808594	1186.480224609375	-556.3538208007814	-264.4175720214844	1119.327514648438	-554.8715209960939	-320.7165222167969	1077.7041015625	-605.1635742187501	-129.2900085449219	1114.096435546875	-792.9338378906252	-97.83752441406253	1067.413330078125	-740.1218261718751	-55.37522506713869	1114.862060546875	-837.5244140625002	-267.6687316894532	996.0858154296877	-982.0069580078127	-248.0968627929688	999.7895507812502	-729.6455688476564	-417.4783325195314	1060.806274414063	-847.7691650390627	-424.5902709960939	1029.461303710938	-874.551208496094	-419.8008422851564	1030.205078125	-817.5488281250002	-316.0430603027344	753.7659912109376	-1057.156372070313	-283.5459594726563	675.5120849609376	-1061.712158203125	-236.6718750000001	681.3592529296876	-1048.337524414063	-309.2732238769532	621.9863281250001	-1051.967529296875	-315.9619445800782	512.8865966796876	-1046.7939453125	-266.1445312500001	492.8571166992189	-926.7747192382815	-266.4365234375001	386.1565246582032	-1021.686279296875	-332.0007629394532	354.4631347656251	-1069.719604492188	-290.7703552246094	343.2162780761719	-1052.342163085938	-300.3187561035157	262.3674926757813	-1026.705688476563	-387.0899353027345	129.9885406494141	-1044.603881835938	-355.6988525390626	137.7591552734375	-965.115661621094	-445.4753723144532	101.7940063476563	-1003.524353027344	-243.3498229980469	52.27534103393556	-973.963073730469	-238.4362030029297	54.62460327148439	-1022.574768066406	-278.4754333496094	42.04805755615235	-1075.084716796875	-311.7058410644532	794.275329589844	-666.8524780273439	-274.5319519042969	741.0370483398439	-672.3768920898439	-243.8100280761719	746.9377441406251	-684.6261596679689	-304.3475341796876	660.7777099609376	-684.3289794921876	-325.4219665527344	507.7464904785157	-717.7581176757814	-289.5991821289063	502.5493469238282	-842.7359008789065	-285.3692016601563	360.0482788085938	-787.3242187500002	-339.4880371093751	284.1075134277344	-730.6903686523439	-304.0707092285157	277.8521423339844	-763.1516113281251	-317.9189147949219	234.9744415283204	-800.9233398437502	-391.6564025878907	117.0753707885742	-767.8514404296876	-364.7443542480469	143.0515441894532	-847.0064086914065	-449.9101867675782	100.7450103759766	-824.0510864257815	-245.7536315917969	58.3375701904297	-836.0650024414065	-246.0691680908204	54.85897064208986	-793.608093261719	-284.1549072265626	34.52607727050782	-741.8385009765626	-345.7530822753907	1640.327392578125	-759.2206420898439	
1166	5.825	-234.6560974121094	1721.093017578125	-838.5222167968752	-378.3789367675782	1606.324340820313	-914.9548339843752	-422.3854064941407	1487.733276367188	-850.778503417969	-426.6547851562501	1161.161499023438	-844.6463623046877	-277.2527770996094	1429.378173828125	-851.744567871094	-318.7969360351563	1454.798950195313	-1012.313903808594	-327.7229003906251	1259.424560546875	-1135.907836914063	-283.8710632324219	1239.802368164063	-1119.314575195313	-306.8099365234376	1194.871215820313	-1155.505126953125	-271.1927795410157	1117.115478515625	-1154.436401367188	-335.4941406250001	1091.7734375	-1091.481079101563	-148.7911682128907	1106.619384765625	-930.405944824219	-104.7779693603516	1066.616333007813	-976.9119873046877	-79.66595458984376	1112.779663085938	-879.3132934570315	-310.7262573242188	1454.246704101563	-688.2611083984376	-306.4565124511719	1254.14501953125	-571.6613769531251	-266.7326049804688	1230.992065429688	-590.7446899414064	-290.6561584472657	1186.345703125	-556.8666992187501	-264.7457885742188	1119.189208984375	-555.3766479492189	-320.9854431152344	1077.655151367188	-605.7687988281251	-129.2424468994141	1114.355834960938	-793.3436279296877	-97.76044464111331	1067.664916992188	-740.3988037109376	-55.76440811157228	1115.2919921875	-837.961608886719	-267.8940734863282	996.0384521484377	-982.2176513671877	-248.3230743408204	999.794860839844	-729.8413696289064	-417.6098632812501	1060.776245117188	-848.003845214844	-424.7130432128907	1029.37744140625	-874.837585449219	-419.9808044433595	1030.1376953125	-817.8916015625002	-316.0584716796876	753.6539306640626	-1057.304321289063	-283.5856628417969	675.4666137695314	-1061.777709960938	-236.6183013916016	681.3488159179689	-1048.468139648438	-309.2001342773438	621.8847656250001	-1052.146118164063	-316.0160217285157	512.8790283203126	-1046.94189453125	-266.0028686523438	492.9301147460939	-926.917175292969	-266.4521789550782	386.1086730957032	-1021.803161621094	-331.2979736328126	354.2479858398438	-1069.499755859375	-290.7635192871094	343.2139892578126	-1052.429321289063	-299.5693359375001	262.2726745605469	-1026.070190429688	-387.2667236328126	130.0019989013672	-1044.598266601563	-355.6956176757813	137.75390625	-965.085632324219	-445.4917602539064	101.810287475586	-1003.506103515625	-243.2995300292969	52.29125976562501	-973.944274902344	-238.509017944336	54.66305923461915	-1022.557006835938	-278.5037536621094	42.04779052734376	-1075.057983398438	-311.8682861328126	794.2822265625002	-666.9611206054689	-274.6741638183594	741.0166015625001	-672.5043334960939	-243.9406738281251	746.9628295898439	-684.7878417968751	-304.4565734863282	660.8193359375001	-684.4542846679689	-325.4622802734376	507.7517700195314	-717.8967895507814	-289.6238708496094	502.5886840820314	-842.865173339844	-285.4097595214844	360.0459289550782	-787.4185180664065	-339.4942016601563	284.0997619628907	-730.7147216796876	-304.0801696777344	277.8052368164063	-763.1754760742189	-317.9578857421876	234.9913482666016	-800.9514770507815	-391.6459960937501	117.0995101928711	-767.8873291015626	-364.8549804687501	143.0292358398438	-847.0625000000002	-449.9234924316407	100.7527542114258	-824.040466308594	-245.734848022461	58.33835983276369	-836.0491943359377	-246.1274566650391	54.9070281982422	-793.6518554687502	-284.1164550781251	34.56388854980469	-741.8525390625001	-346.0758972167969	1640.185302734375	-759.5965576171876	
